<svg width="64" height="64" viewBox="0 0 64 64" fill="none" xmlns="http://www.w3.org/2000/svg">
<rect width="64" height="64" fill="#0A0A0A"/>
<path d="M39.4067 24.7333V27.2067C38.6467 26.8 37.78 26.5733 36.86 26.5733C34.7267 26.5733 32.88 27.8 32 29.58C31.12 27.8 29.2733 26.5733 27.14 26.5733C25.0067 26.5733 23.16 27.8 22.28 29.58C21.4 27.8067 19.5533 26.5733 17.42 26.5733C14.4533 26.5733 12.0467 28.94 12.0067 31.88C12.0067 31.8933 12.0067 31.9133 12.0067 31.92C12.0067 33.5067 12.0067 36.5933 12.0067 36.5933C12.0067 37.0067 12.3467 37.34 12.7733 37.34H14.02C14.42 37.34 14.7533 37.04 14.78 36.6533C14.78 36.6533 14.78 36.6533 14.78 36.66V32.0933C14.78 32.08 14.78 32.0667 14.78 32.0533C14.78 32.02 14.78 31.9867 14.78 31.9533C14.78 30.5067 15.96 29.3267 17.42 29.3267C18.88 29.3267 20.06 30.5 20.06 31.9533C20.06 31.9667 20.06 31.9733 20.06 31.9867V36.5933C20.06 37.0067 20.4067 37.34 20.8267 37.34H22.0667C22.4933 37.34 22.8333 37.0067 22.8333 36.5933C22.8333 36.5933 22.8333 36.0067 22.8333 35.22C23.82 36.5067 25.38 37.34 27.14 37.34C29.2733 37.34 31.12 36.1133 32 34.3333C32.8867 36.1133 34.7267 37.34 36.86 37.34C38.9933 37.34 40.84 36.1133 41.72 34.3333C42.6067 36.1133 44.4467 37.34 46.58 37.34C49.5733 37.34 51.9933 34.9267 51.9933 31.9533C51.9933 28.98 49.5667 26.5667 46.58 26.5667C44.8267 26.5667 43.2667 27.4 42.28 28.6867V24.7333C42.28 24.3267 41.9467 24 41.54 24H40.1533C39.74 24 39.4067 24.3267 39.4067 24.7333ZM27.14 34.5867C25.6867 34.5867 24.5 33.4133 24.5 31.96C24.5 30.5133 25.68 29.3333 27.14 29.3333C28.5933 29.3333 29.78 30.5067 29.78 31.96C29.78 33.4133 28.6 34.5867 27.14 34.5867ZM36.86 34.5867C35.4067 34.5867 34.22 33.4133 34.22 31.96C34.22 30.5133 35.4 29.3333 36.86 29.3333C38.32 29.3333 39.5 30.5067 39.5 31.96C39.5 33.4133 38.3133 34.5867 36.86 34.5867ZM46.58 29.34C48.0333 29.34 49.22 30.5133 49.22 31.9667C49.22 33.42 48.04 34.5933 46.58 34.5933C45.12 34.5933 43.94 33.42 43.94 31.9667C43.94 30.5133 45.1267 29.34 46.58 29.34Z" fill="white"/>
</svg>
